<?xml version="1.0" encoding="UTF-8"?>
<svg version="1.1" viewBox="0 0 800 800" width="1280" height="1280" xmlns="http://www.w3.org/2000/svg">
<path transform="translate(0)" d="m0 0h800v800h-800z" fill="#F1F6F3"/>
<path transform="translate(319,191)" d="m0 0h13l13 3 12 6 12 11 37 37h3l-1-3v-13l2-7 6-5h74l7 6 1 3v18l-4 7-3 2-5 1v18l-1 2h9l5 3 3 6v18l-3 5-5 4v23l25 25 7 11 4 12 1 6v13l-3 12-7 14-7 8-11 8-12 5-9 2h-13l-13-3-12-6-12-11-4-4-22-1-13-4-5-3-4 5-5 2h-71l-6-3-3-5v-21l5-6 5-2h6v-19l-8-3-4-6v-20l4-6 3-2 6-1-9-9-6-12-2-7v-8l-4-2-13-13-7-11-4-12-1-6v-13l4-15 7-12 6-7 13-9 10-4z" fill="#FECD00"/>
<path transform="translate(319,191)" d="m0 0h13l13 3 12 6 12 11 36 36-1 3-4 2-3 7v15l3 7 7 3 6 1v21l-5 3-3 8v13l3 8-13 4h-4l-3-5-4-2-14-1v-2l7-6 6-9 4-13v-14l-4-13-7-10-8-7-11-5-12-2-12 1-12 5-8 6-7 8-5 12-2 12-4-2-13-13-7-11-4-12-1-6v-13l4-15 7-12 6-7 13-9 10-4z" fill="#ACE8B5"/>
<path transform="translate(497,340)" d="m0 0 7 6 15 15 7 11 4 12 1 6v13l-3 12-7 14-7 8-11 8-12 5-9 2h-13l-13-3-12-6-12-11-4-5 56-1 6-3 3-7v-18l6-5 2-5v-16l-3-6-2-3 1-2z" fill="#ACE8B5"/>
<path transform="translate(410,354)" d="m0 0 11 1 8 4 5 4 5 8 2 6v11l-4 10-5 6-8 5-6 2h-9l-9-3-6-4-6-7-3-7-1-8 2-10 5-8 7-6 7-3z" fill="#5BD26D"/>
<path transform="translate(337,269)" d="m0 0h13l10 5 6 5 5 10 1 5v7l-4 11-7 8-8 4-3 1h-13l-9-4-7-6-5-10-1-11 3-10 7-9z" fill="#5BD26D"/>
<path transform="translate(141,506)" d="m0 0h45v13h-29v18h26v13h-26v19h-16z" fill="#2B2B2B"/>
<path transform="translate(502,525)" d="m0 0h26l7 3 3 7v18h-26l1 5 8 1 1-3 14-2v8l-2 5-4 3-3 1h-25l-5-5-1-5v-25l3-9z" fill="#2B2B2B"/>
<path transform="translate(406,525)" d="m0 0h25l8 3 2 4 1 6v15h-26l1 5 8 1v-3l14-2 1 5-2 8-4 3-4 1h-24l-5-5-1-3v-29l3-7z" fill="#2B2B2B"/>
<path transform="translate(405,346)" d="m0 0h15l10 4 6 4 8 9 4 9 1 4v12l-3 10-6 9-7 6-8 4-10 2-12-1-12-6-6-5-6-9-3-10v-11l3-10 6-9 8-7 8-4zm5 8-10 3-6 4-6 7-3 7-1 8 2 10 5 8 7 6 6 3 5 1h9l10-4 6-5 5-8 2-6v-11l-4-10-5-6-8-5-11-2z" fill="#EDF6F0"/>
<path transform="translate(335,261)" d="m0 0h17l10 4 9 7 6 10 3 9v12l-4 11-4 6-7 7-10 5-3 1h-16l-11-4-10-9-5-8-3-10v-10l3-10 6-10 11-8zm2 8-12 6-7 9-3 10 1 11 5 10 8 7 8 3h13l9-4 8-7 4-9 1-4v-7l-3-10-6-8-10-6-3-1z" fill="#EDF6EF"/>
<path transform="translate(415,313)" d="m0 0h68l2 1v18l-4 2h-64l-4-2v-17z" fill="#F2F7F4"/>
<path transform="translate(551,524)" d="m0 0h19l4 2 2 6v27l4 1v10l-13 1h-22l-4-2-1-2v-15l4-4 17-2v-9l-6-1v3l-10 2h-4v-8l2-5 3-3z" fill="#2B2B2B"/>
<path transform="translate(273,524)" d="m0 0h19l4 2 2 6v27l4 1v10l-13 1h-22l-4-2-1-2v-15l4-4 17-2v-9l-6-1v3l-10 2h-4v-8l2-5 3-3z" fill="#2B2B2B"/>
<path transform="translate(422,285)" d="m0 0h70l2 3v14l-2 3h-70l-1-1v-18z" fill="#F2F7F4"/>
<path transform="translate(419,228)" d="m0 0h69l2 3v14l-2 3h-70l-1-1v-18z" fill="#F2F7F4"/>
<path transform="translate(308,525)" d="m0 0h36l3 3 1 4v38h-14l-1-32-9 1-1 31h-15z" fill="#2B2B2B"/>
<path transform="translate(215,525)" d="m0 0h36l3 3 1 4v38h-14l-1-32-9 1-1 31h-15z" fill="#2B2B2B"/>
<path transform="translate(406,257)" d="m0 0h70l1 1v17l-3 2h-66l-3-2-1-7 1-10z" fill="#F2F7F4"/>
<path transform="translate(620,525)" d="m0 0h35l3 2 1 3v40h-14l-1-31-9-1-1 32h-14z" fill="#2B2B2B"/>
<path transform="translate(308,399)" d="m0 0h63l7 11 2 2v5l-3 2h-67l-3-2v-16z" fill="#F2F7F4"/>
<path transform="translate(313,342)" d="m0 0h70l1 1v5l-8 9-3 5h-60l-2-2v-16z" fill="#F2F7F4"/>
<path transform="translate(449,506)" d="m0 0h16v50h26v13h-42z" fill="#2B2B2B"/>
<path transform="translate(362,525)" d="m0 0h27l4 2 2 5v11h-14l-1-7-7 1-1 3v19h8v-4h15v7l-3 7-6 2h-24l-5-4-1-3v-31l2-5z" fill="#2B2B2B"/>
<path transform="translate(433,342)" d="m0 0h55l2 3v14l-2 3h-36l-6-9-8-7z" fill="#F2F7F4"/>
<path transform="translate(325,370)" d="m0 0h44l-1 20h-43l-2-3v-14z" fill="#F2F7F4"/>
<path transform="translate(586,525)" d="m0 0h28v16l-11 1-1 1-1 27h-15z" fill="#2B2B2B"/>
<path transform="translate(454,399)" d="m0 0h30l2 3v10l-1 6-2 1h-44l6-7 5-6z" fill="#F2F7F4"/>
<path transform="translate(456,370)" d="m0 0h36l2 3v14l-2 3h-35z" fill="#F2F7F4"/>
<path transform="translate(411,362)" d="m0 0 5 1 1 3h6l2 2v5l-4 2h-12v3h7l6 3 3 5v6l-5 6-5 5-5-1-1-3h-6l-3-3 2-5 13-1 1-3h-7l-6-3-3-6 1-6 5-5 2-1 1-3z" fill="#E6F4E9"/>
<path transform="translate(341,277)" d="m0 0h5l2 3 7 1 1 1-1 7-14 1-1 2 9 1 6 5 1 8-4 6-4 1-1 4h-6l-2-2-7-3-1-4 3-3h13l-1-3-10-2-4-4-1-7 3-5 5-4z" fill="#E7F4EA"/>
<path transform="translate(191,525)" d="m0 0h14v45h-14z" fill="#2B2B2B"/>
<path transform="translate(190,503)" d="m0 0h16v16h-16z" fill="#2B2B2B"/>
<path transform="translate(675,587)" d="m0 0h9l5 2 1 1-1 7-4 3h-7l-1 6h-5l2-10v-8z" fill="#2B2B2B"/>
<path transform="translate(414,590)" d="m0 0 7 1 3 4v6l-5 5-7-1-3-4v-6z" fill="#2B2B2B"/>
<path transform="translate(703,592)" d="m0 0h10l-2 10 1 4h-13l-2-3 1-6z" fill="#2B2B2B"/>
<path transform="translate(736,591)" d="m0 0 5 2 1 3-5 5h-5v2h7l-1 3h-8l-3-4 1-5 5-5z" fill="#3F413F"/>
<path transform="translate(429,590)" d="m0 0 4 1 4 7 1-8h3v16l-4-1-4-7-1 8h-3z" fill="#2B2B2B"/>
<path transform="translate(275,590)" d="m0 0 4 1 4 7 1-8h3v16l-4-1-4-7-1 8h-3z" fill="#2B2B2B"/>
<path transform="translate(516,590)" d="m0 0 4 2 3 5v2h2v-9h2v16h-3l-5-9-1 9-3-1v-14z" fill="#2B2B2B"/>
<path transform="translate(356,590)" d="m0 0 5 1 4 15h-3l-1-2-6-1v3h-3z" fill="#404140"/>
<path transform="translate(296,590)" d="m0 0 5 1 4 15h-3l-1-2-6-1v3h-3z" fill="#424342"/>
<path transform="translate(537,590)" d="m0 0 7 1v2l-7 1-1 6 1 2h7v-2h-5v-3h8l-1 6-4 3-7-1-3-5 1-6z" fill="#2B2B2B"/>
<path transform="translate(310,590)" d="m0 0h3l5 9 1-9h2v16h-3l-4-7v-2h-2v9h-2z" fill="#2B2B2B"/>
<path transform="translate(449,590)" d="m0 0 7 1 1 3h-7v2l7 2 1 5-3 3h-6l-3-4h4l5 1v-3l-7-1-2-2 1-5z" fill="#2B2B2B"/>
<path transform="translate(463,590)" d="m0 0h3l1 12h4l1-12h3v12l-4 4-6-1-2-3z" fill="#2B2B2B"/>
<path transform="translate(722,591)" d="m0 0 5 2v4l-4-1v-2l-4 1v8h6l-1 3h-8l-3-3 1-7 4-4z" fill="#2B2B2B"/>
<path transform="translate(692,586)" d="m0 0h6l-4 18 2 1-1 1h-5l1-11 2-6h-2z" fill="#2B2B2B"/>
<path transform="translate(252,590)" d="m0 0h10v3h-7v4h5v3h-5v6h-3z" fill="#2B2B2B"/>
<path transform="translate(512,553)" d="m0 0h21v2l-11 2-1 2h-8l-1-1z" fill="#EFF6F1"/>
<path transform="translate(398,590)" d="m0 0 7 1-1 3h-6l-1 1v6l1 1h6l1 3-7 1-5-5v-6z" fill="#2B2B2B"/>
<path transform="translate(414,593)" d="m0 0h5l2 2v6l-2 2h-5l-2-2v-6z" fill="#F0F6F2"/>
<path transform="translate(619,588)" d="m0 0h1v8l-1 6h-7l-1-5 2-4 4-1z" fill="#686A68"/>
<path transform="translate(331,590)" d="m0 0h6l1 3-8 1v8h8v3l-1 1h-6l-4-4v-8z" fill="#2B2B2B"/>
<path transform="translate(513,536)" d="m0 0h8l2 2v5h-11z" fill="#F1F6F3"/>
<path transform="translate(417,536)" d="m0 0h8l2 3v4h-11v-6z" fill="#F0F6F2"/>
<path transform="translate(480,590)" d="m0 0h3v13h7v3h-10z" fill="#2B2B2B"/>
<path transform="translate(353,474)" d="m0 0h5v5 3l-1 4h-5l-1-4v-6z" fill="#383938"/>
<path transform="translate(405,474)" d="m0 0h11l2 2v6h-3v-6h-2v6h-3v-6l-2 1-1 5h-2z" fill="#2B2B2B"/>
<path transform="translate(606,592)" d="m0 0h4v7l-2 3h-5l-1-1 1-7z" fill="#676867"/>
<path transform="translate(423,474)" d="m0 0h6l2 2-1 5-5 1v4h-2z" fill="#444945"/>
<path transform="translate(589,592)" d="m0 0h5 3 3l1 5-1 5h-2l1-8-3 2-1 6h-2v-6l1-2h-3l-1 7-2 1v-8z" fill="#2B2B2B"/>
<path transform="translate(380,469)" d="m0 0h11v3h-4v10h-3v-10l-4-1z" fill="#2B2B2B"/>
<path transform="translate(491,590)" d="m0 0h12l-1 3h-4v13h-2v-13l-5-1z" fill="#2B2B2B"/>
<path transform="translate(370,590)" d="m0 0h2v13h8v3h-10z" fill="#2B2B2B"/>
<path transform="translate(364,474)" d="m0 0h5l2 5-2 3h-5l-2-5z" fill="#474847"/>
<path transform="translate(634,592)" d="m0 0 3 4 3-4 1 1v5h2l1-5 2-1-3 9h-3l-1-4-2 5h-2l-2-9z" fill="#2B2B2B"/>
<path transform="translate(327,469)" d="m0 0h3v10h5v3h-8z" fill="#2B2B2B"/>
<path transform="translate(341,474)" d="m0 0 5 1 1 5-2 2-5-1-1-5z" fill="#494A49"/>
<path transform="translate(465,474)" d="m0 0 6 1 1 4-2 3h-5l-2-5z" fill="#363737"/>
<path transform="translate(394,474)" d="m0 0 5 1 1 5-1 2h-5l-2-2 1-5z" fill="#393B3A"/>
<path transform="translate(624,592)" d="m0 0 4 1v4l-5 1v2l5-1-1 3-5-1-1-5z" fill="#484848"/>
<path transform="translate(659,588)" d="m0 0 2 2-1 3 4-1 2 4-1 6h-2l1-8-3 1-2 7h-2l1-11z" fill="#2B2B2B"/>
<path transform="translate(344,590)" d="m0 0h3v16h-3z" fill="#2B2B2B"/>
<path transform="translate(444,474)" d="m0 0 5 1 1 7h-7v-4l2-1-2-2z" fill="#373737"/>
<path transform="translate(268,590)" d="m0 0h2v16l-3-1v-14z" fill="#2B2B2B"/>
<path transform="translate(705,594)" d="m0 0h3l-2 9-3 1-2-3 2-5z" fill="#F0F6F2"/>
<path transform="translate(753,588)" d="m0 0h2l-1 4 3 1-3 1-2 11 4 1h-5l-1-1 1-10 1-2-2-1 2-1z" fill="#2B2B2B"/>
<path transform="translate(456,471)" d="m0 0 1 3h2v2h-2l1 3 2 2-4 1-2-2-1-5 1-3z" fill="#2B2B2B"/>
<path transform="translate(435,469)" d="m0 0h3v13h-3z" fill="#2B2B2B"/>
<path transform="translate(680,590)" d="m0 0 5 1 1 2-2 4h-5z" fill="#F2F7F4"/>
<path transform="translate(558,556)" d="m0 0h3v5h-6l-1-4z" fill="#EBF5ED"/>
<path transform="translate(280,556)" d="m0 0h3v5h-6l-1-4z" fill="#EBF5ED"/>
<path transform="translate(653,590)" d="m0 0 2 1 1 3h-2v5l2 2-4 1-1-9z" fill="#2B2B2B"/>
</svg>
